<?xml version="1.0" encoding="UTF-8"?>
<svg viewBox="0 0 540.69458 774.66583" xmlns="http://www.w3.org/2000/svg">
 <g transform="translate(-55.651 -118.59)">
  <path d="m310.29 403.98 92.565 69.251 2.9546-3.6602-92.426-68.837-3.0942 3.2454z" fill="#ececec" stroke="#000"/>
  <path d="m255.5 445.14-79.776 93.962c0.77981 5.167 3.8471 6.331 7.5852 6.321l78.512-94.241-6.321-6.0416z" fill="#ececec" stroke="#000"/>
  <path d="m359.86 457.21 3.5 2.833-19.179 22.63-3.2214-2.4445" fill="#989698" stroke="#000" stroke-linejoin="round"/>
  <path d="m273.07 432.91 67.766 47.221 18.963-22.922-67.072-48.986-19.657 24.687z" fill="#161516" stroke="#000"/>
  <path d="m291.19 488.28 3.3738-50.125c11.559-10.75 24.165-15.798 40.595 0l4.1834 49.275" fill="#343331" stroke="#000"/>
  <path d="m269.63 486.54h91.412a1.34 1.34 0 0 1 1.34 1.34v62.167a1.34 1.34 0 0 1 -1.34 1.34h-91.412a1.34 1.34 0 0 1 -1.34 -1.34v-62.167a1.34 1.34 0 0 1 1.34 -1.34" stroke="#000" stroke-linecap="round" stroke-linejoin="round" stroke-width=".4"/>
  <path d="m275.23 530.61 9.0361-1.2757 7.8668 8.292-9.4614-0.53154" fill="#87421b" stroke="#5c310e"/>
  <path d="m282.62 537.46 8.6297 0.71914-216.85 345.18-7.9706 6.6043" fill="#7d5922" stroke="#572900"/>
  <path d="m358.92 534.29 14.576-0.32651 140.81 315.64-0.64133 20.404" fill="#7d5922" stroke="#5f2900"/>
  <path transform="rotate(38.844)" d="m247.88-37.984h484.36c2.9826 0 5.3837 2.4011 5.3837 5.3837 16.472 42.478 10.678 74.767 0 104.82 0 2.9826-2.4011 5.3837-5.3837 5.3837h-484.36c-2.9826 0-5.3837-2.4011-5.3837-5.3837-10.311-41.565-7.5348-74.721 0-104.82 0-2.9826 2.4011-5.3837 5.3837-5.3837z" stroke="#514f58" stroke-linecap="round" stroke-linejoin="round" stroke-width=".4"/>
  <path d="m59.711 877.85 192.17-365.47 30.476 24.726-215.74 352.82c-9.732 5.3881-14.064 3.9367-6.9007-12.076z" fill="#9a723d" stroke="#553000"/>
  <path d="m345.04 553.78 13.801-18.977 153.19 323.25c5.3087 28.685-6.4442 13.497-15.527 5.1756l-151.46-309.45z" fill="#9a723d" stroke="#522d00"/>
  <path d="m329.51 552.06-31.053-1.7252-13.801 192.75c3.101 5.9392 6.5331 6.2491 10.351 0l34.504-191.02z" fill="#764b19" stroke="#562f00"/>
  <path d="m246.78 439.64 63.636-76.836 20.8 18.272-63.21 75.852-21.226-17.287z" stroke="#000"/>
  <path d="m301.62 340.12-11.058 13.956 55.829 45.958 10.484-13.012-55.254-46.902z" stroke="#000"/>
  <g transform="matrix(.7815 .62391 -.62391 .7815 162.83 -105.56)" stroke="#514f58" stroke-linecap="round" stroke-linejoin="round" stroke-width=".4">
   <path d="m314.78 104.22h58.153c3.6694 6.6592 5.5368 12.269 0 21.491h-58.153v-21.491z"/>
   <path d="m249.05 100.43h65.738c6.5532 12.275 5.7609 20.942 0 30.341h-65.738c-4.4964-8.4621-5.4898-18.211 0-30.341z"/>
  </g>
  <path d="m289.5 187.65 15.726-13.906 18.407 15.17-10.114 16.434-24.02-17.699z" fill="none" stroke="#000" stroke-width="4"/>
  <path d="m213.63 170.84-16.413 20.607 39.38 28.908 17.341-23.694-37.031-25.452" fill="none" stroke="#4b4b4f"/>
  <path transform="rotate(39.408)" d="m464.37 257.95h39.274a7.6014 7.6014 0 0 1 7.6014 7.6014v22.804a7.6014 7.6014 0 0 1 -7.6014 7.6014h-39.274a7.6014 7.6014 0 0 1 -7.6014 -7.6014v-22.804a7.6014 7.6014 0 0 1 7.6014 -7.6014" stroke="#59595c" stroke-linecap="round" stroke-linejoin="round" stroke-width=".4"/>
  <path transform="matrix(.57544,-.81784,.81784,.57544,0,0)" d="m-161.05 595.48h16.561a5.6555 5.6555 0 0 1 5.6555 5.6555v5.1586a5.6555 5.6555 0 0 1 -5.6555 5.6555h-16.561a5.6555 5.6555 0 0 1 -5.6555 -5.6555v-5.1586a5.6555 5.6555 0 0 1 5.6555 -5.6555" stroke="#59595c" stroke-linecap="round" stroke-linejoin="round" stroke-width=".4"/>
  <path transform="matrix(.80847,.58854,-.56222,.82699,0,0)" d="m511.57 266.93h13.189a1.2349 1.2349 0 0 1 1.2349 1.2349v21.934a1.2349 1.2349 0 0 1 -1.2349 1.2349h-13.189a1.2349 1.2349 0 0 1 -1.2349 -1.2349v-21.934a1.2349 1.2349 0 0 1 1.2349 -1.2349" stroke="#000" stroke-linecap="round" stroke-linejoin="round" stroke-width=".4001"/>
  <path d="m251.84 512 12.544-1.4883 8.9298 8.5046-10.206 2.0198" fill="#965c1b" stroke="#5a2a00"/>
  <path d="m263.43 521.57c0.74416-0.10631 11.906-2.6577 11.906-2.6577l8.6109 9.355-9.4614 1.9135-11.056-8.6109z" stroke="#000"/>
  <path transform="matrix(.99997,-.00799,.41075,.91175,0,0)" d="m122.77 586.57h6.0015a1.2167 1.2167 0 0 1 1.2167 1.2167v7.0179a1.2167 1.2167 0 0 1 -1.2167 1.2167h-6.0015a1.2167 1.2167 0 0 1 -1.2167 -1.2167v-7.0179a1.2167 1.2167 0 0 1 1.2167 -1.2167" stroke="#000" stroke-linecap="round" stroke-linejoin="round" stroke-width=".41817"/>
  <path d="m361.32 532.02c0.61492 0.12298 8.5885 2.0252 8.5885 2.0252l-6.952 0.15947-2.9893-1.0778 1.9677-0.86088" stroke="#000"/>
  <path transform="translate(-2.3346 -1.6676)" d="m325.18 448.95c0 4.2825-3.4717 7.7542-7.7542 7.7542s-7.7542-3.4717-7.7542-7.7542 3.4717-7.7542 7.7542-7.7542 7.7542 3.4717 7.7542 7.7542z" fill="#d6d1de" stroke="#a1a1a0" stroke-linecap="round" stroke-linejoin="round" stroke-width=".4"/>
  <path transform="translate(3.5019 3.3351)" d="m315.84 447.87-5.6338 1.7537-4.3357-4.0022 1.2981-5.7559 5.6338-1.7537 4.3357 4.0022-1.2981 5.7559z" fill="#babbbd" fill-rule="evenodd" stroke="#727472" stroke-width=".3"/>
  <path transform="translate(2.8349 2.6681)" d="m308.5 414.02c0 4.4207-3.5837 8.0043-8.0043 8.0043s-8.0043-3.5837-8.0043-8.0043 3.5837-8.0043 8.0043-8.0043 8.0043 3.5837 8.0043 8.0043z" fill="#161516" stroke="#727472" stroke-linecap="round" stroke-linejoin="round" stroke-width=".8"/>
  <path transform="rotate(40.063)" d="m479.78 295.22h13.52a1.34 1.34 0 0 1 1.34 1.34v0.67178a1.34 1.34 0 0 1 -1.34 1.34h-13.52a1.34 1.34 0 0 1 -1.34 -1.34v-0.67178a1.34 1.34 0 0 1 1.34 -1.34" fill="#ececec" stroke="#727472" stroke-linecap="round" stroke-linejoin="round" stroke-width=".8"/>
  <path d="m202.51 502.94 8.3795-10.335c5.1264 1.3799 9.4912 5.0444 13.128 10.893l-7.8209 9.2175" stroke="#000"/>
  <path d="m356.13 469.15 16.2 12.849-4.1898 5.0277-16.48-13.128 4.4691-4.7484z" stroke="#000"/>
  <path d="m289.05 331.67-3.677 4.6984 12.257 10.214 5.1069-5.7198" stroke="#000"/>
  <path d="m356.16 384.68-5.5155 5.924 13.278 10.01 5.1069-5.7198" stroke="#000"/>
  <path d="m286.18 329.65 76.506-88.21 10.785 8.6401-76.506 88.823-10.785-9.2529z" fill="#141418" stroke="#5c5c5c"/>
  <path d="m360.93 390.75 76.506-88.21 10.785 8.6401-76.506 88.823-10.785-9.2529z" fill="#141418" stroke="#5c5c5c"/>
  <path d="m284.81 180.86 5.9011-4.9694 34.475 29.506-4.9694 6.5223" fill="#141418" stroke="#000"/>
  <path d="m216.48 176.82 31.68 21.741-2.4847 3.4164-31.68-21.43 2.4847-3.727z" fill="#cacbcb" stroke="#8d8c8e"/>
  <path d="m212.08 164.22-12.937 16.693 9.9722 7.1483 12.326-16.849-9.3612-6.9918z" fill="#141418" stroke="#525353"/>
  <path d="m250.59 190.05-12.529 17.001 10.143 6.9043 11.914-17.143-9.528-6.7627z" fill="#141418" stroke="#525353"/>
  <path d="m217.44 185.13c1.2642-6.321 38.547-65.76 38.547-65.76 12.136-1.4918 19.146 2.9315 20.516 13.862l-37.571 65.804c-9.4964-0.18221-20.691 2.8776-21.491-13.906z" fill="#141218" stroke="#454545"/>
  <path d="m256.03 119.42c-6.0784 10.986 12.522 22.805 20.271 14.147" fill="none" stroke="#444148"/>
  <path transform="matrix(.88283 .46969 -.46969 .88283 89.343 -109.49)" d="m269.77 125.77c0 0.84534-1.4562 1.5306-3.2525 1.5306s-3.2526-0.68527-3.2526-1.5306 1.4562-1.5306 3.2526-1.5306 3.2525 0.68528 3.2525 1.5306z" fill="#141218" stroke="#656664" stroke-linecap="round" stroke-linejoin="round" stroke-width="4"/>
  <path d="m232.34 193.03c-4.8239-1.0496-8.487-5.043-10.816-11.792l-0.70951-2.0559 1.4922-2.7273c1.6656-3.0443 7.2951-12.788 7.5161-13.01 0.0781-0.0781 0.42766 0.65369 0.77689 1.6263 2.3614 6.5763 6.0712 10.536 11.089 11.836 1.823 0.47222 5.3694 0.51229 7.57 0.0856 0.8345-0.16184 1.5488-0.26274 1.5873-0.22423s-1.9205 3.5596-4.3534 7.8246l-4.4235 7.7546-1.2774 0.29914c-3.2545 0.76218-6.1133 0.89166-8.4521 0.38279z" fill="#ccd7db" stroke="#656664" stroke-linecap="round" stroke-linejoin="round" stroke-width=".5"/>
  <path d="m202.67 191.35c0 0.59329-0.48095 1.0742-1.0742 1.0742s-1.0742-0.48095-1.0742-1.0742 0.48095-1.0742 1.0742-1.0742 1.0742 0.48096 1.0742 1.0742z" fill="#ccd7db" stroke="#656664" stroke-linecap="round" stroke-linejoin="round" stroke-width=".5"/>
  <path d="m237.23 216.15c0 0.64273-0.52104 1.1638-1.1638 1.1638s-1.1638-0.52103-1.1638-1.1638 0.52104-1.1638 1.1638-1.1638 1.1638 0.52104 1.1638 1.1638z" fill="#ccd7db" stroke="#656664" stroke-linecap="round" stroke-linejoin="round" stroke-width=".5"/>
  <path d="m563.86 484.06c0 1.7534-1.1371 3.1749-2.5399 3.1749s-2.5399-1.4214-2.5399-3.1749 1.1372-3.1749 2.5399-3.1749 2.5399 1.4214 2.5399 3.1749z" fill="#ccd7db" stroke="#656664" stroke-linecap="round" stroke-linejoin="round" stroke-width=".5"/>
  <path d="m589.25 438.34c0 1.7534-1.1372 3.1749-2.5399 3.1749s-2.5399-1.4214-2.5399-3.1749 1.1372-3.1749 2.5399-3.1749 2.5399 1.4214 2.5399 3.1749z" fill="#ccd7db" stroke="#656664" stroke-linecap="round" stroke-linejoin="round" stroke-width=".5"/>
  <path d="m529.57 512.64c0 0.70137-1.4214 1.2699-3.1749 1.2699s-3.1749-0.56857-3.1749-1.2699 1.4214-1.27 3.1749-1.27 3.1749 0.56858 3.1749 1.27z" fill="#ccd7db" stroke="#656664" stroke-linecap="round" stroke-linejoin="round" stroke-width=".5"/>
  <path d="m151.16 211.91c0 1.036-0.69161 1.8758-1.5448 1.8758s-1.5448-0.83981-1.5448-1.8758 0.69161-1.8758 1.5448-1.8758 1.5448 0.83981 1.5448 1.8758z" fill="#ccd7db" stroke="#656664" stroke-linecap="round" stroke-linejoin="round" stroke-width=".5"/>
  <path d="m177.65 168.54c0 1.2188-1.0374 2.2068-2.3171 2.2068s-2.3171-0.98802-2.3171-2.2068 1.0374-2.2068 2.3171-2.2068 2.3171 0.98801 2.3171 2.2068z" fill="#ccd7db" stroke="#656664" stroke-linecap="round" stroke-linejoin="round" stroke-width=".5"/>
  <path d="m215.6 130.48c0 0.67032-0.74101 1.2137-1.6551 1.2137s-1.6551-0.54341-1.6551-1.2137 0.74101-1.2137 1.6551-1.2137 1.6551 0.54341 1.6551 1.2137z" fill="#ccd7db" stroke="#656664" stroke-linecap="round" stroke-linejoin="round" stroke-width=".5"/>
 </g>
</svg>
